<?xml version="1.0" encoding="utf-8"?>
<!-- Generator: Adobe Illustrator 23.0.6, SVG Export Plug-In . SVG Version: 6.00 Build 0)  -->
<svg version="1.1" id="Capa_1" xmlns="http://www.w3.org/2000/svg" xmlns:xlink="http://www.w3.org/1999/xlink" x="0px" y="0px"
	 viewBox="0 0 328 171" style="enable-background:new 0 0 328 171;" xml:space="preserve">
<style type="text/css">
	.st0{fill:#BBBBBC;stroke:#BBBBBC;stroke-miterlimit:10;}
	.st1{fill:#BBBBBC;stroke:#BBBBBC;stroke-linecap:round;stroke-linejoin:round;stroke-miterlimit:10;}
</style>
<g>
	<g>
		<path class="st0" d="M131,33c-11.3,1.3-12.5,2.2-12.5,14.4v53.8c0,19.2-3.1,29.2-12.8,38c-4.8,4.4-9.6,6.7-13.5,8.4l-2.3-4.4
			c8.3-4.1,12.9-10.8,14.5-19.2c1.3-7,1.4-15.4,1.4-27.6v-49c0-12.2-1.3-13.2-13.2-14.4V29H131L131,33L131,33z"/>
		<path class="st0" d="M237.5,83.8c-9,1.2-9.6,2-9.6,10.6v12.2c0,5.1,0.1,9.9,0.9,13.8c-9,2-20.8,5.2-33,5.2
			c-33,0-53.1-20.5-53.1-49.7c0-30.7,25-49,54.1-49c14.8,0,25.7,2.9,30.3,3.6c0.3,5.4,1,14.3,2.2,23.4l-4.4,0.9
			c-3.5-12.4-7.7-17.6-16.9-20.6c-3.3-1.2-9.3-1.9-13.5-1.9c-22.3,0-36.6,15.3-36.6,41.9c0,23.1,11.9,46.1,40.1,46.1
			c4.9,0,9.4-1,12.4-2.5c3.1-1.8,4.9-3.3,4.9-9.3V96.6c0-10.6-1.2-11.8-15.1-12.8v-4.2h37.4L237.5,83.8L237.5,83.8z"/>
	</g>
</g>
<path class="st1" d="M319.9,92.2c-4.7,0-8.3,2.7-10.7,8c-2,4.4-3,9.1-3,14.1v29c0,5.6-1.5,10.7-4.7,15.2c-3.1,4.5-7.3,6.7-12.6,6.7
	h-11.4v-11h7.5c5.3,0,8-6.1,8-18.3l-0.2-14.7c0-19.4,5-30.8,14.9-34c-4.3-1.4-7.8-4.5-10.6-9.3S293,68,293,63.2l-0.2-9.7V34.4
	c0-9.3-2.6-13.9-7.8-13.9h-7.5v-11h11.4c7.9,0,13.2,4.2,15.8,12.7c0.8,2.6,1.3,5.6,1.5,9.1c0.2,3.5,0.3,7.8,0.3,13.1l-0.2,7.3
	c0,4.4,0.1,8.2,0.3,11.5s0.6,5.8,1,7.4c2,7.6,6.1,11.3,12.2,11.3L319.9,92.2L319.9,92.2z"/>
<path class="st1" d="M8.5,92.2c4.7,0,8.3,2.7,10.7,8c2,4.4,3,9.1,3,14.1v29c0,5.6,1.5,10.7,4.7,15.2c3.1,4.5,7.3,6.7,12.6,6.7h11.4
	v-11h-7.5c-5.3,0-8-6.1-8-18.3l0.2-14.7c0-19.4-5-30.8-14.9-34c4.3-1.4,7.8-4.5,10.6-9.3s4.2-9.7,4.2-14.4l0.2-9.7V34.4
	c0-9.3,2.6-13.9,7.8-13.9h7.5v-11H39.5c-7.9,0-13.2,4.2-15.8,12.7c-0.8,2.6-1.3,5.6-1.5,9.1c-0.2,3.5-0.3,7.8-0.3,13.1l0.2,7.3
	c0,4.4-0.1,8.2-0.3,11.5s-0.6,5.8-1,7.4C18.6,78.3,14.6,82,8.5,82V92.2L8.5,92.2z"/>
</svg>
