<?xml version="1.0" encoding="utf-8"?>
<!-- Generator: Adobe Illustrator 23.0.6, SVG Export Plug-In . SVG Version: 6.00 Build 0)  -->
<svg version="1.1" id="Capa_1" xmlns="http://www.w3.org/2000/svg" xmlns:xlink="http://www.w3.org/1999/xlink" x="0px" y="0px"
	 viewBox="0 0 328 171" style="enable-background:new 0 0 328 171;" xml:space="preserve">
<style type="text/css">
	.st0{fill:#212D62;}
	.st1{fill:#212D62;stroke:#FFFFFF;stroke-linecap:round;stroke-linejoin:round;stroke-miterlimit:10;}
</style>
<g>
	<g>
		<path class="st0" d="M131.02,33.04c-11.34,1.31-12.51,2.18-12.51,14.4v53.81c0,19.2-3.05,29.23-12.8,37.96
			c-4.8,4.36-9.6,6.69-13.52,8.43l-2.33-4.36c8.29-4.07,12.94-10.76,14.54-19.2c1.31-6.98,1.45-15.42,1.45-27.63V47.44
			c0-12.22-1.31-13.23-13.23-14.4v-4.07h38.39L131.02,33.04L131.02,33.04z"/>
		<path class="st0" d="M237.47,83.8c-9.02,1.16-9.6,2.04-9.6,10.62v12.22c0,5.09,0.15,9.89,0.87,13.82
			c-9.02,2.04-20.8,5.24-33.01,5.24c-33.01,0-53.08-20.51-53.08-49.74c0-30.69,25.01-49.01,54.1-49.01
			c14.83,0,25.74,2.91,30.25,3.64c0.29,5.38,1.02,14.25,2.18,23.41l-4.36,0.87c-3.49-12.36-7.71-17.6-16.87-20.65
			c-3.34-1.16-9.31-1.89-13.52-1.89c-22.25,0-36.65,15.27-36.65,41.88c0,23.12,11.93,46.1,40.14,46.1c4.94,0,9.45-1.02,12.36-2.47
			c3.05-1.75,4.94-3.34,4.94-9.31V96.6c0-10.62-1.16-11.78-15.12-12.8v-4.22h37.38L237.47,83.8L237.47,83.8z"/>
	</g>
</g>
<path class="st1" d="M319.92,92.2c-4.74,0-8.3,2.66-10.67,7.96c-2.03,4.4-3.05,9.09-3.05,14.06v28.97c0,5.64-1.55,10.7-4.66,15.16
	c-3.11,4.46-7.31,6.69-12.62,6.69h-11.35v-11.01h7.45c5.31,0,7.96-6.1,7.96-18.3l-0.17-14.74c0-19.42,4.97-30.78,14.91-34.05
	c-4.29-1.36-7.82-4.46-10.59-9.32c-2.77-4.86-4.15-9.66-4.15-14.4l-0.17-9.66V34.42c0-9.26-2.6-13.89-7.79-13.89h-7.45V9.52h11.35
	c7.91,0,13.16,4.23,15.75,12.71c0.79,2.6,1.3,5.62,1.52,9.06c0.23,3.45,0.34,7.82,0.34,13.13l-0.17,7.29c0,4.4,0.11,8.24,0.34,11.52
	s0.57,5.76,1.02,7.45c2.03,7.57,6.1,11.35,12.2,11.35L319.92,92.2L319.92,92.2z"/>
<path class="st1" d="M8.47,92.2c4.74,0,8.3,2.66,10.67,7.96c2.03,4.4,3.05,9.09,3.05,14.06v28.97c0,5.64,1.55,10.7,4.66,15.16
	c3.1,4.46,7.31,6.69,12.62,6.69h11.35v-11.01h-7.45c-5.31,0-7.96-6.1-7.96-18.3l0.17-14.74c0-19.42-4.97-30.78-14.91-34.05
	c4.29-1.36,7.82-4.46,10.59-9.32c2.77-4.86,4.15-9.66,4.15-14.4l0.17-9.66V34.42c0-9.26,2.6-13.89,7.79-13.89h7.45V9.52H39.47
	c-7.91,0-13.16,4.23-15.75,12.71c-0.79,2.6-1.3,5.62-1.52,9.06c-0.23,3.45-0.34,7.82-0.34,13.13l0.17,7.29
	c0,4.4-0.11,8.24-0.34,11.52s-0.57,5.76-1.02,7.45c-2.03,7.57-6.1,11.35-12.2,11.35L8.47,92.2L8.47,92.2z"/>
</svg>
